<svg xmlns="http://www.w3.org/2000/svg" viewBox="0 0 600 160" fill="none">
  <defs>
    <filter id="glow" x="-20%" y="-20%" width="140%" height="140%">
      <feGaussianBlur in="SourceGraphic" stdDeviation="2" result="blur"/>
      <feMerge>
        <feMergeNode in="blur"/>
        <feMergeNode in="SourceGraphic"/>
      </feMerge>
    </filter>
  </defs>

  <g stroke="#00FF41" stroke-width="5" stroke-linecap="round" stroke-linejoin="round" filter="url(#glow)">

    <!-- Prompt caret -->
    <path d="M 22 50 L 40 68 L 22 86"/>
    <circle cx="40" cy="68" r="3.5" fill="#00FF41" stroke="none"/>

    <!-- C — half-ring with angled terminals -->
    <path d="M 95 30 C 60 30 50 50 50 70 C 50 90 60 110 95 110"/>
    <line x1="93" y1="30" x2="98" y2="30" stroke-width="6"/>
    <line x1="93" y1="110" x2="98" y2="110" stroke-width="6"/>
    <circle cx="98" cy="30" r="4" fill="#00FF41" stroke="none"/>
    <circle cx="98" cy="110" r="4" fill="#00FF41" stroke="none"/>

    <!-- L — vertical riser + extended kick -->
    <path d="M 155 18 L 155 118 L 210 118"/>
    <circle cx="155" cy="18" r="4" fill="#00FF41" stroke="none"/>
    <circle cx="155" cy="117" r="4" fill="#00FF41" stroke="none"/>
    <circle cx="210" cy="118" r="4" fill="#00FF41" stroke="none"/>

    <!-- N — left stem + right stem + diagonal bridge with centre tap -->
    <path d="M 250 18 L 250 118 L 310 18 L 310 118"/>
    <circle cx="250" cy="18" r="4" fill="#00FF41" stroke="none"/>
    <circle cx="250" cy="118" r="4" fill="#00FF41" stroke="none"/>
    <circle cx="310" cy="18" r="4" fill="#00FF41" stroke="none"/>
    <circle cx="310" cy="117" r="4" fill="#00FF41" stroke="none"/>
    <circle cx="295" cy="52" r="2.5" fill="#00FF41" stroke="none"/>

    <!-- R — tall spine + bowl with a swooping leg -->
    <path d="M 360 118 L 360 18 C 410 18 420 45 415 68 C 410 90 385 100 360 95 L 385 118"/>
    <circle cx="360" cy="18" r="4" fill="#00FF41" stroke="none"/>
    <circle cx="360" cy="117" r="4" fill="#00FF41" stroke="none"/>
    <circle cx="385" cy="118" r="4" fill="#00FF41" stroke="none"/>
    <circle cx="415" cy="68" r="3" fill="#00FF41" stroke="none"/>

    <!-- M — outer stems + inner chevron meeting at a central node -->
    <path d="M 460 18 L 460 118 L 495 62 L 530 118 L 530 18"/>
    <circle cx="460" cy="18" r="4" fill="#00FF41" stroke="none"/>
    <circle cx="460" cy="118" r="4" fill="#00FF41" stroke="none"/>
    <circle cx="530" cy="18" r="4" fill="#00FF41" stroke="none"/>
    <circle cx="530" cy="118" r="4" fill="#00FF41" stroke="none"/>
    <circle cx="495" cy="62" r="4" fill="#00FF41" stroke="none"/>

    <!-- Blinking cursor block -->
    <rect x="562" y="22" width="14" height="96" rx="2" fill="#00FF41">
      <animate attributeName="opacity" values="0.9;0.05;0.9" dur="1.2s" repeatCount="indefinite"/>
    </rect>

  </g>
</svg>
